<?xml version="1.0" standalone="no"?><!DOCTYPE svg PUBLIC "-//W3C//DTD SVG 1.1//EN" "http://www.w3.org/Graphics/SVG/1.1/DTD/svg11.dtd"><svg t="1538207186186" class="icon" style="" viewBox="0 0 1024 1024" version="1.1" xmlns="http://www.w3.org/2000/svg" p-id="1422" xmlns:xlink="http://www.w3.org/1999/xlink" width="64" height="64"><defs><style type="text/css"></style></defs><path d="M72.0855 100.3315c0-1.3107 0.4997-2.6204 1.4991-3.6209 1.0004-0.9994 2.3101-1.4991 3.6209-1.4991h32.392192c1.3107 0 2.6204 0.4997 3.6209 1.4991 0.9994 1.0004 1.4991 2.3101 1.4991 3.6209v790.685696h861.740032c1.3097 0 2.6214 0.4997 3.6198 1.5002 1.0004 0.9994 1.5002 2.3101 1.5002 3.6198v32.392192c0 1.3097-0.4997 2.6214-1.5002 3.6198-0.9994 1.0004-2.3101 1.5002-3.6198 1.5002H72.085504V100.33152000000001z" p-id="1423"></path><path d="M384.724 110.5715c0-3.9311 1.4991-7.8623 4.4995-10.8605 2.9993-2.9993 6.9304-4.4995 10.8605-4.4995H539.89376c3.9311 0 7.8623 1.4991 10.8605 4.4995 2.9993 2.9993 4.4995 6.9304 4.4995 10.8605v723.6014080000001H384.723968V110.57152z" p-id="1424"></path><path d="M171.562 323.7335c0-3.9311 1.4991-7.8623 4.4995-10.8605 2.9993-2.9993 6.9304-4.4995 10.8605-4.4995h139.809792c3.9311 0 7.8623 1.4991 10.8605 4.4995 2.9993 2.9993 4.4995 6.9304 4.4995 10.8605v510.440448H171.561984V323.73350400000004z" p-id="1425"></path><path d="M597.887 536.8965c0-3.9311 1.5002-7.8623 4.4995-10.8605s6.9304-4.4995 10.8605-4.4995h139.809792c3.9311 0 7.8623 1.5002 10.8605 4.4995s4.4995 6.9304 4.4995 10.8605v297.27744H597.886976V536.896512z" p-id="1426"></path><path d="M811.049 750.0585c0-3.9311 1.5002-7.8623 4.4995-10.8605s6.9304-4.4995 10.8605-4.4995h139.809792c3.9311 0 7.8623 1.5002 10.8605 4.4995s4.4995 6.9304 4.4995 10.8605v84.11648H811.04896V750.0584960000001z" p-id="1427"></path></svg>